<svg width="14" height="15" viewBox="0 0 14 15" fill="none" xmlns="http://www.w3.org/2000/svg">
<path d="M13.6109 0.130859H5.05536C4.8404 0.130859 4.66646 0.304802 4.66646 0.51976C4.66646 0.734718 4.8404 0.908661 5.05536 0.908661H12.6721L0.113728 13.4671C-0.038194 13.619 -0.038194 13.8651 0.113728 14.017C0.189671 14.0929 0.289202 14.1309 0.388697 14.1309C0.488192 14.1309 0.587687 14.0929 0.663666 14.017L13.222 1.45856V9.07533C13.222 9.29029 13.3959 9.46423 13.6109 9.46423C13.8259 9.46423 13.9998 9.29029 13.9998 9.07533V0.51976C13.9998 0.304802 13.8258 0.130859 13.6109 0.130859Z" fill="#405FF2"/>
</svg>
